# xmcd
#
# Track frame offsets:
#	150
#	5469
#	26304
#	50535
#	73003
#	91620
#	114978
#	143698
#	151536
#	178038
#	195727
#
# Disc length: 3217 seconds
#
# Revision: 1
# Processed by: cddbd v1.5.2PL0 Copyright (c) Steve Scherf et al.
# Submitted via: audiograbber 1.83.01
#
DISCID=7c0c8f0b
DTITLE=Wentus Blues Band - Family Meeting 1
DYEAR=2007
DGENRE=Blues
TTITLE0=Going to the show
TTITLE1=Moonshine
TTITLE2=You gonna make me cry
TTITLE3=Since I've been loving you
TTITLE4=I got to go
TTITLE5=Passenger Blues
TTITLE6=Pick up the pieces
TTITLE7=Lonesome Fugitive
TTITLE8=Angel Blues
TTITLE9=Stop twistin my arm
TTITLE10=Can't you hear me knocking
EXTD=Disc 1
EXTT0=
EXTT1=
EXTT2=
EXTT3=
EXTT4=
EXTT5=
EXTT6=
EXTT7=
EXTT8=
EXTT9=
EXTT10=
PLAYORDER=
